<svg width="106" height="106" viewBox="0 0 106 106" fill="none" xmlns="http://www.w3.org/2000/svg">
<path d="M53 66.6364C60.5312 66.6364 66.6364 60.5312 66.6364 53C66.6364 45.4689 60.5312 39.3636 53 39.3636C45.4688 39.3636 39.3636 45.4689 39.3636 53C39.3636 60.5312 45.4688 66.6364 53 66.6364Z" stroke="#0C8346" stroke-width="5" stroke-linecap="round" stroke-linejoin="round"/>
<path d="M86.6364 66.6364C86.0313 68.0073 85.8508 69.5282 86.1182 71.0027C86.3855 72.4772 87.0885 73.8378 88.1364 74.9091L88.4091 75.1818C89.2543 76.0261 89.9249 77.0287 90.3824 78.1324C90.8399 79.236 91.0753 80.4189 91.0753 81.6136C91.0753 82.8083 90.8399 83.9913 90.3824 85.0949C89.9249 86.1985 89.2543 87.2011 88.4091 88.0454C87.5648 88.8907 86.5622 89.5612 85.4585 90.0187C84.3549 90.4762 83.172 90.7117 81.9773 90.7117C80.7826 90.7117 79.5996 90.4762 78.496 90.0187C77.3924 89.5612 76.3898 88.8907 75.5454 88.0454L75.2727 87.7727C74.2015 86.7248 72.8408 86.0219 71.3663 85.7545C69.8918 85.4872 68.371 85.6677 67 86.2727C65.6556 86.8489 64.509 87.8057 63.7014 89.0252C62.8938 90.2447 62.4604 91.6737 62.4545 93.1364V93.9091C62.4545 96.3201 61.4968 98.6325 59.7919 100.337C58.087 102.042 55.7747 103 53.3636 103C50.9526 103 48.6403 102.042 46.9354 100.337C45.2305 98.6325 44.2727 96.3201 44.2727 93.9091V93.5C44.2375 91.9955 43.7505 90.5363 42.875 89.3123C41.9996 88.0882 40.7761 87.1558 39.3636 86.6364C37.9927 86.0313 36.4718 85.8508 34.9973 86.1182C33.5228 86.3855 32.1622 87.0885 31.0909 88.1364L30.8182 88.4091C29.9739 89.2543 28.9713 89.9249 27.8676 90.3824C26.764 90.8399 25.581 91.0753 24.3864 91.0753C23.1917 91.0753 22.0087 90.8399 20.9051 90.3824C19.8015 89.9249 18.7988 89.2543 17.9545 88.4091C17.1093 87.5648 16.4388 86.5622 15.9813 85.4585C15.5238 84.3549 15.2883 83.172 15.2883 81.9773C15.2883 80.7826 15.5238 79.5996 15.9813 78.496C16.4388 77.3924 17.1093 76.3898 17.9545 75.5454L18.2273 75.2727C19.2752 74.2015 19.9781 72.8408 20.2455 71.3663C20.5128 69.8918 20.3323 68.371 19.7273 67C19.1511 65.6556 18.1943 64.509 16.9748 63.7014C15.7553 62.8938 14.3263 62.4604 12.8636 62.4545H12.0909C9.67985 62.4545 7.36754 61.4968 5.66267 59.7919C3.95779 58.087 3 55.7747 3 53.3636C3 50.9526 3.95779 48.6403 5.66267 46.9354C7.36754 45.2305 9.67985 44.2727 12.0909 44.2727H12.5C14.0045 44.2375 15.4637 43.7505 16.6877 42.875C17.9118 41.9996 18.8442 40.7761 19.3636 39.3636C19.9687 37.9927 20.1492 36.4718 19.8818 34.9973C19.6145 33.5228 18.9115 32.1622 17.8636 31.0909L17.5909 30.8182C16.7457 29.9739 16.0751 28.9713 15.6176 27.8676C15.1601 26.764 14.9247 25.581 14.9247 24.3864C14.9247 23.1917 15.1601 22.0087 15.6176 20.9051C16.0751 19.8015 16.7457 18.7988 17.5909 17.9545C18.4352 17.1093 19.4378 16.4388 20.5415 15.9813C21.6451 15.5238 22.828 15.2883 24.0227 15.2883C25.2174 15.2883 26.4004 15.5238 27.504 15.9813C28.6076 16.4388 29.6102 17.1093 30.4545 17.9545L30.7273 18.2273C31.7985 19.2752 33.1592 19.9781 34.6337 20.2455C36.1082 20.5128 37.629 20.3323 39 19.7273H39.3636C40.708 19.1511 41.8546 18.1943 42.6622 16.9748C43.4699 15.7553 43.9033 14.3263 43.9091 12.8636V12.0909C43.9091 9.67985 44.8669 7.36754 46.5718 5.66267C48.2766 3.95779 50.5889 3 53 3C55.4111 3 57.7234 3.95779 59.4282 5.66267C61.1331 7.36754 62.0909 9.67985 62.0909 12.0909V12.5C62.0967 13.9627 62.5301 15.3917 63.3378 16.6112C64.1454 17.8307 65.292 18.7874 66.6364 19.3636C68.0073 19.9687 69.5282 20.1492 71.0027 19.8818C72.4772 19.6145 73.8378 18.9115 74.9091 17.8636L75.1818 17.5909C76.0261 16.7457 77.0287 16.0751 78.1324 15.6176C79.236 15.1601 80.4189 14.9247 81.6136 14.9247C82.8083 14.9247 83.9913 15.1601 85.0949 15.6176C86.1985 16.0751 87.2011 16.7457 88.0454 17.5909C88.8907 18.4352 89.5612 19.4378 90.0187 20.5415C90.4762 21.6451 90.7117 22.828 90.7117 24.0227C90.7117 25.2174 90.4762 26.4004 90.0187 27.504C89.5612 28.6076 88.8907 29.6102 88.0454 30.4545L87.7727 30.7273C86.7248 31.7985 86.0219 33.1592 85.7545 34.6337C85.4872 36.1082 85.6677 37.629 86.2727 39V39.3636C86.8489 40.708 87.8057 41.8546 89.0252 42.6622C90.2447 43.4699 91.6737 43.9033 93.1364 43.9091H93.9091C96.3201 43.9091 98.6325 44.8669 100.337 46.5718C102.042 48.2766 103 50.5889 103 53C103 55.4111 102.042 57.7234 100.337 59.4282C98.6325 61.1331 96.3201 62.0909 93.9091 62.0909H93.5C92.0373 62.0967 90.6083 62.5301 89.3888 63.3378C88.1693 64.1454 87.2126 65.292 86.6364 66.6364V66.6364Z" stroke="#0C8346" stroke-width="5" stroke-linecap="round" stroke-linejoin="round"/>
</svg>
